<svg width="512" height="512" viewBox="0 0 512 512" fill="none" xmlns="http://www.w3.org/2000/svg">
<g clip-path="url(#clip0_2764_932)">
<path d="M0 0H512V512H0V0Z" fill="url(#paint0_linear_2764_932)"/>
<g clip-path="url(#clip1_2764_932)">
<path fill-rule="evenodd" clip-rule="evenodd" d="M410.14 343.937C410.14 353.826 407.208 363.492 401.714 371.715C396.22 379.937 388.412 386.345 379.276 390.129C370.14 393.914 360.086 394.904 350.388 392.975C340.689 391.045 331.78 386.284 324.788 379.291C317.795 372.299 313.033 363.39 311.104 353.691C309.175 343.992 310.165 333.939 313.949 324.803C317.734 315.667 324.142 307.859 332.364 302.365C340.587 296.871 350.253 293.938 360.142 293.938C373.402 293.938 386.12 299.206 395.496 308.583C404.873 317.959 410.14 330.676 410.14 343.937Z" fill="white"/>
<path fill-rule="evenodd" clip-rule="evenodd" d="M205.257 393.304C179.699 393.272 155.196 383.103 137.125 365.029C119.053 346.954 108.889 322.449 108.861 296.89V207.121H241.955V386.312L236.021 388.306C226.11 391.624 215.727 393.312 205.275 393.304H205.257ZM126.276 224.536V296.89C126.292 308.9 129.043 320.748 134.32 331.536C139.597 342.324 147.261 351.769 156.731 359.155C166.202 366.54 177.23 371.671 188.979 374.159C200.728 376.648 212.889 376.428 224.54 373.516V224.536H126.276Z" fill="white"/>
<path fill-rule="evenodd" clip-rule="evenodd" d="M313.74 224.536H108.861V91.4286H403.174L405.173 97.3539C410.041 111.858 411.391 127.311 409.11 142.439C406.829 157.567 400.984 171.936 392.056 184.36C383.128 196.783 371.373 206.906 357.762 213.891C344.151 220.877 329.074 224.525 313.775 224.536H313.74ZM126.259 207.121H313.74C325.751 207.106 337.601 204.356 348.391 199.078C359.181 193.801 368.627 186.136 376.012 176.663C383.398 167.191 388.529 156.161 391.016 144.41C393.503 132.659 393.28 120.496 390.366 108.844H126.276L126.259 207.121Z" fill="white"/>
</g>
</g>
<defs>
<linearGradient id="paint0_linear_2764_932" x1="535.552" y1="568.832" x2="-79.872" y2="-119.808" gradientUnits="userSpaceOnUse">
<stop stop-color="#CA1E07"/>
<stop offset="0.221" stop-color="#961519"/>
<stop offset="0.483" stop-color="#600D2C"/>
<stop offset="0.71" stop-color="#38073A"/>
<stop offset="0.89" stop-color="#1F0342"/>
<stop offset="1" stop-color="#170246"/>
</linearGradient>
<clipPath id="clip0_2764_932">
<rect width="512" height="512" fill="white"/>
</clipPath>
<clipPath id="clip1_2764_932">
<rect width="301.309" height="302.502" fill="white" transform="translate(108.844 91.4286)"/>
</clipPath>
</defs>
</svg>
